<?xml version="1.0" encoding="utf-8"?>
<!-- Generator: Adobe Illustrator 27.5.0, SVG Export Plug-In . SVG Version: 6.00 Build 0)  -->
<svg version="1.1" xmlns="http://www.w3.org/2000/svg" xmlns:xlink="http://www.w3.org/1999/xlink" x="0px" y="0px"
	 viewBox="0 0 500 500" style="enable-background:new 0 0 500 500;" xml:space="preserve">
<g id="Floor">
	<path style="fill:#F5F5F5;" d="M405.195,255.092c-88.41-51.043-231.282-51.043-319.117,0.001
		c-87.841,51.047-87.375,133.804,1.035,184.848c88.415,51.047,231.288,51.046,319.128-0.002
		C494.076,388.896,493.61,306.139,405.195,255.092z"/>
</g>
<g id="Shadows_1_">
	<path style="fill:#E6E6E6;" d="M441.754,354.442c7.92-4.573,20.718-4.572,28.586,0c7.869,4.573,7.827,11.986-0.093,16.559
		c-7.92,4.573-20.719,4.573-28.587,0C433.792,366.429,433.833,359.015,441.754,354.442z"/>
	<path style="fill:#E6E6E6;" d="M180.081,401.995c22.27-12.858,58.258-12.857,80.384,0c22.126,12.858,22.009,33.704-0.261,46.562
		c-22.271,12.858-58.26,12.858-80.386,0C157.693,435.699,157.81,414.853,180.081,401.995z"/>
	<polygon style="fill:#E6E6E6;" points="172.439,272.192 419.08,413.604 431.731,406.23 185.032,264.852 	"/>
</g>
<g id="Plant">
	<g>
		<g>
			<path style="fill:#FFFFFF;" d="M436.825,328.132L456,328.691l19.175-0.559c0.826,12.949-1.702,26.146-5.188,32.592l-0.014-0.002
				c-0.624,1.414-1.879,2.756-3.796,3.862c-5.658,3.267-14.801,3.267-20.422,0c-1.949-1.133-3.202-2.511-3.793-3.962
				C438.504,354.141,436.003,341.017,436.825,328.132z"/>
			<g>
				<path style="fill:#EBEBEB;" d="M442.486,320.278c-7.513,4.338-7.553,11.37-0.089,15.707c7.464,4.338,19.605,4.338,27.118,0
					c7.512-4.337,7.552-11.37,0.088-15.707C462.139,315.941,449.999,315.941,442.486,320.278z"/>
			</g>
			<g>
				<path style="fill:#E0E0E0;" d="M445.457,322.004c-5.862,3.384-5.892,8.871-0.069,12.255c5.823,3.384,15.295,3.384,21.156,0
					c5.861-3.384,5.892-8.87,0.069-12.254C460.79,318.621,451.318,318.621,445.457,322.004z"/>
			</g>
			<g style="opacity:0.15;">
				<path d="M445.457,322.004c-5.862,3.384-5.892,8.871-0.069,12.255c5.823,3.384,15.295,3.384,21.156,0
					c5.861-3.384,5.892-8.87,0.069-12.254C460.79,318.621,451.318,318.621,445.457,322.004z"/>
			</g>
		</g>
		<g>
			<path style="fill:#455A64;" d="M465.781,288.891c3.119-3.877,6.74-7.35,9.6-11.422c1.951-2.778,3.582-6.178,2.762-9.472
				c-0.761-3.056-3.617-5.33-6.713-5.909c-3.096-0.579-6.337,0.346-9.011,2.01c-2.674,1.664-4.847,4.019-6.81,6.482
				c-10.729,13.465-15.955,31.187-14.249,48.319c0.195,1.964,0.525,4.03,1.779,5.553c1.346,1.634,3.703,2.354,5.732,1.752
				c5.223-1.55,4.531-8.607,5.384-12.758c1.17-5.689,3.202-11.2,6-16.29C461.852,294.248,463.701,291.477,465.781,288.891z"/>
			<path style="opacity:0.2;fill:#FFFFFF;" d="M465.781,288.891c3.119-3.877,6.74-7.35,9.6-11.422
				c1.951-2.778,3.582-6.178,2.762-9.472c-0.761-3.056-3.617-5.33-6.713-5.909c-3.096-0.579-6.337,0.346-9.011,2.01
				c-2.674,1.664-4.847,4.019-6.81,6.482c-10.729,13.465-15.955,31.187-14.249,48.319c0.195,1.964,0.525,4.03,1.779,5.553
				c1.346,1.634,3.703,2.354,5.732,1.752c5.223-1.55,4.531-8.607,5.384-12.758c1.17-5.689,3.202-11.2,6-16.29
				C461.852,294.248,463.701,291.477,465.781,288.891z"/>
			<g>
				<path style="fill:#F0F0F0;" d="M448.544,320.945c0.202-0.04,0.359-0.213,0.369-0.428c0.366-8.385,3.091-37.006,22.815-53.244
					c0.195-0.16,0.223-0.449,0.062-0.644c-0.16-0.195-0.448-0.222-0.643-0.063c-20.015,16.48-22.778,45.429-23.148,53.91
					c-0.01,0.252,0.185,0.466,0.437,0.477C448.473,320.955,448.509,320.952,448.544,320.945z"/>
			</g>
			<g>
				<path style="fill:#455A64;" d="M445.662,321.853c0.597,3.291,3.424,7.365,6.405,8.882c2.955,1.504,6.385,1.906,9.692,1.622
					c3.366-0.289,6.636-1.255,9.838-2.333c1.581-0.532,3.339-1.251,3.508-3.21c0.089-1.034-0.375-2.035-1.119-2.759
					c-0.312-0.304-0.655-0.599-1.021-0.879c-0.744-0.569-0.395-1.752,0.54-1.816c0.941-0.064,1.877-0.17,2.804-0.347
					c2.141-0.409,4.249-1.225,5.887-2.663c1.23-1.08,2.162-2.488,2.719-4.027c0.476-1.317,0.609-2.97-0.388-3.953
					c-0.572-0.564-1.395-0.778-2.181-0.948c-0.701-0.152-1.404-0.28-2.109-0.39c-0.937-0.146-1.092-1.424-0.217-1.789l2.975-1.239
					c0.826-0.344,1.686-0.713,2.258-1.402c0.911-1.098,0.846-2.697,0.573-4.098c-0.364-1.862-1.007-3.658-1.445-5.504
					c-0.438-1.846-0.668-3.794-0.196-5.632c-5.555-0.563-11.262-0.298-16.664,1.112c-1.613,0.421-3.245,0.95-4.547,1.991
					c-1.855,1.484-2.338,3.712-2.141,6.125c0.037,0.458-0.592,0.631-0.811,0.227l-1.901-3.505c-0.573-1.056-1.868-1.454-2.956-0.944
					c-1.64,0.77-3.104,2.003-4.347,3.419c-1.34,1.527-2.024,3.539-1.86,5.563c0.222,2.738,0.7,5.512,1.386,8.168
					c0.18,0.696-0.6,1.22-1.183,0.8l-0.091-0.066c-0.519-0.376-1.156-0.6-1.792-0.521c-1.68,0.208-2.11,1.911-2.221,3.36
					C444.894,317.195,445.266,319.668,445.662,321.853z"/>
				<path style="opacity:0.2;" d="M445.662,321.853c0.597,3.291,3.424,7.365,6.405,8.882c2.955,1.504,6.385,1.906,9.692,1.622
					c3.366-0.289,6.636-1.255,9.838-2.333c1.581-0.532,3.339-1.251,3.508-3.21c0.089-1.034-0.375-2.035-1.119-2.759
					c-0.312-0.304-0.655-0.599-1.021-0.879c-0.744-0.569-0.395-1.752,0.54-1.816c0.941-0.064,1.877-0.17,2.804-0.347
					c2.141-0.409,4.249-1.225,5.887-2.663c1.23-1.08,2.162-2.488,2.719-4.027c0.476-1.317,0.609-2.97-0.388-3.953
					c-0.572-0.564-1.395-0.778-2.181-0.948c-0.701-0.152-1.404-0.28-2.109-0.39c-0.937-0.146-1.092-1.424-0.217-1.789l2.975-1.239
					c0.826-0.344,1.686-0.713,2.258-1.402c0.911-1.098,0.846-2.697,0.573-4.098c-0.364-1.862-1.007-3.658-1.445-5.504
					c-0.438-1.846-0.668-3.794-0.196-5.632c-5.555-0.563-11.262-0.298-16.664,1.112c-1.613,0.421-3.245,0.95-4.547,1.991
					c-1.855,1.484-2.338,3.712-2.141,6.125c0.037,0.458-0.592,0.631-0.811,0.227l-1.901-3.505c-0.573-1.056-1.868-1.454-2.956-0.944
					c-1.64,0.77-3.104,2.003-4.347,3.419c-1.34,1.527-2.024,3.539-1.86,5.563c0.222,2.738,0.7,5.512,1.386,8.168
					c0.18,0.696-0.6,1.22-1.183,0.8l-0.091-0.066c-0.519-0.376-1.156-0.6-1.792-0.521c-1.68,0.208-2.11,1.911-2.221,3.36
					C444.894,317.195,445.266,319.668,445.662,321.853z"/>
				<path style="opacity:0.2;fill:#FFFFFF;" d="M445.662,321.853c0.597,3.291,3.424,7.365,6.405,8.882
					c2.955,1.504,6.385,1.906,9.692,1.622c3.366-0.289,6.636-1.255,9.838-2.333c1.581-0.532,3.339-1.251,3.508-3.21
					c0.089-1.034-0.375-2.035-1.119-2.759c-0.312-0.304-0.655-0.599-1.021-0.879c-0.744-0.569-0.395-1.752,0.54-1.816
					c0.941-0.064,1.877-0.17,2.804-0.347c2.141-0.409,4.249-1.225,5.887-2.663c1.23-1.08,2.162-2.488,2.719-4.027
					c0.476-1.317,0.609-2.97-0.388-3.953c-0.572-0.564-1.395-0.778-2.181-0.948c-0.701-0.152-1.404-0.28-2.109-0.39
					c-0.937-0.146-1.092-1.424-0.217-1.789l2.975-1.239c0.826-0.344,1.686-0.713,2.258-1.402c0.911-1.098,0.846-2.697,0.573-4.098
					c-0.364-1.862-1.007-3.658-1.445-5.504c-0.438-1.846-0.668-3.794-0.196-5.632c-5.555-0.563-11.262-0.298-16.664,1.112
					c-1.613,0.421-3.245,0.95-4.547,1.991c-1.855,1.484-2.338,3.712-2.141,6.125c0.037,0.458-0.592,0.631-0.811,0.227l-1.901-3.505
					c-0.573-1.056-1.868-1.454-2.956-0.944c-1.64,0.77-3.104,2.003-4.347,3.419c-1.34,1.527-2.024,3.539-1.86,5.563
					c0.222,2.738,0.7,5.512,1.386,8.168c0.18,0.696-0.6,1.22-1.183,0.8l-0.091-0.066c-0.519-0.376-1.156-0.6-1.792-0.521
					c-1.68,0.208-2.11,1.911-2.221,3.36C444.894,317.195,445.266,319.668,445.662,321.853z"/>
				<path style="fill:#F0F0F0;" d="M454.499,330.277c0.023-0.117,1.174-5.693,4.482-12.989c0-0.131,0.056-0.253,0.158-0.342
					c0.104-0.226,0.206-0.45,0.314-0.679c-0.95-8.724-4.405-14.811-4.439-14.871c-0.126-0.219-0.051-0.498,0.168-0.624
					c0.219-0.123,0.497-0.051,0.624,0.168c0.034,0.059,3.213,5.657,4.377,13.824c3.794-7.608,9.846-16.506,19.188-23.008
					c0.208-0.143,0.492-0.093,0.636,0.114c0.144,0.207,0.093,0.492-0.114,0.636c-9.636,6.706-15.718,16.003-19.413,23.718
					c7.529-3.666,15.528-2.217,15.884-2.149c0.247,0.047,0.41,0.286,0.363,0.534c-0.036,0.189-0.183,0.328-0.36,0.363
					c-0.056,0.011-0.115,0.012-0.174,0.001c-0.087-0.017-8.808-1.602-16.348,2.614c-3.283,7.222-4.424,12.752-4.447,12.867
					c-0.037,0.187-0.184,0.325-0.36,0.36c-0.057,0.011-0.117,0.012-0.176,0C454.611,330.764,454.45,330.524,454.499,330.277z"/>
			</g>
		</g>
	</g>
</g>
<g id="Screen">
	<g>
		<g>
			<g>
				<path style="fill:#1e56a0;" d="M417.009,358.213l0.326-185.268c0.012-4.12-2.886-9.146-6.477-11.219L181.12,29.438
					c-1.783-1.029-3.401-1.134-4.579-0.474l6.796-3.938l0,0.006c1.189-0.754,2.864-0.691,4.721,0.381l229.737,132.289
					c3.591,2.074,6.489,7.099,6.477,11.219l-0.326,185.268c-0.006,1.944-0.663,3.333-1.728,4.05l0.001,0.001l-0.008,0.004
					c-0.117,0.078-0.238,0.148-0.364,0.209l-6.702,3.903C416.291,361.67,417.003,360.24,417.009,358.213z"/>
				<path style="opacity:0.3;fill:#FFFFFF;" d="M183.336,25.026l0,0.006c1.189-0.754,2.864-0.691,4.721,0.381l229.737,132.289
					c1.996,1.152,3.776,3.218,4.963,5.532l-6.943,4.013c-1.187-2.309-2.964-4.37-4.957-5.521L181.12,29.438
					c-1.783-1.029-3.401-1.134-4.579-0.474L183.336,25.026z"/>
			</g>
			<path style="opacity:0.2;fill:#FFFFFF;" d="M424.272,168.921l-0.326,185.268c-0.006,1.944-0.663,3.333-1.728,4.05l0.001,0.001
				l-0.008,0.004c-0.117,0.078-0.238,0.148-0.364,0.209l-6.702,3.903c1.146-0.687,1.858-2.116,1.864-4.143l0.326-185.268
				c0.005-1.834-0.568-3.846-1.521-5.699l6.943-4.013C423.706,165.083,424.277,167.091,424.272,168.921z"/>
			<path style="fill:#1e56a0;" d="M417.316,181.363l-0.307,176.851c-0.006,2.027-0.717,3.457-1.864,4.143
				c-0.034,0.02-0.067,0.04-0.102,0.059c-0.016,0.009-0.033,0.015-0.049,0.023c-1.171,0.616-2.757,0.499-4.505-0.51L180.751,229.64
				c-3.586-2.07-6.489-7.099-6.477-11.219l0.308-177.079L417.316,181.363z"/>
			<path style="opacity:0.2;" d="M417.316,181.363l-0.307,176.851c-0.006,2.027-0.717,3.457-1.864,4.143
				c-0.034,0.02-0.067,0.04-0.102,0.059c-0.016,0.009-0.033,0.015-0.049,0.023c-1.171,0.616-2.757,0.499-4.505-0.51L180.751,229.64
				c-3.586-2.07-6.489-7.099-6.477-11.219l0.308-177.079L417.316,181.363z"/>
			<polygon style="fill:#FFFFFF;" points="203.161,224.138 203.417,77.164 401.009,190.763 400.753,337.523 			"/>
			<polygon style="fill:#455A64;" points="284.97,211.71 285.084,135.728 372.684,186.091 372.571,261.978 			"/>
			<path style="fill:#1e56a0;" d="M174.6,33.153c0.006-2.027,0.719-3.456,1.866-4.142c0.011-0.007,0.02-0.015,0.031-0.022
				c0.014-0.008,0.029-0.017,0.043-0.025c1.178-0.66,2.796-0.556,4.579,0.473l229.737,132.288c3.592,2.074,6.489,7.099,6.477,11.219
				l-0.019,8.417L174.582,41.342L174.6,33.153z"/>
			<path style="opacity:0.3;" d="M174.6,33.153c0.006-2.027,0.719-3.456,1.866-4.142c0.011-0.007,0.02-0.015,0.031-0.022
				c0.014-0.008,0.029-0.017,0.043-0.025c1.178-0.66,2.796-0.556,4.579,0.473l229.737,132.288c3.592,2.074,6.489,7.099,6.477,11.219
				l-0.019,8.417L174.582,41.342L174.6,33.153z"/>
			<g style="opacity:0.39;">
				<g>
					<path style="fill:#FFFFFF;" d="M191.804,42.1c-0.979-0.565-1.775-0.111-1.778,1.013c-0.003,1.125,0.788,2.494,1.766,3.059
						c0.979,0.565,1.775,0.111,1.778-1.013C193.574,44.035,192.783,42.665,191.804,42.1z"/>
				</g>
				<g>
					<path style="fill:#FFFFFF;" d="M186.964,39.306c-0.979-0.565-1.775-0.111-1.778,1.013c-0.003,1.124,0.788,2.494,1.766,3.059
						c0.979,0.565,1.775,0.111,1.778-1.013C188.733,41.241,187.943,39.871,186.964,39.306z"/>
				</g>
				<g>
					<path style="fill:#FFFFFF;" d="M182.124,36.511c-0.979-0.565-1.775-0.111-1.778,1.013c-0.003,1.124,0.788,2.494,1.766,3.059
						c0.979,0.565,1.775,0.111,1.778-1.013C183.893,38.446,183.103,37.076,182.124,36.511z"/>
				</g>
			</g>
			<g>
				<polygon style="fill:#FFFFFF;" points="191.079,102.504 191.053,111.732 191.079,102.504 				"/>
				<polygon style="fill:#FFFFFF;" points="191.042,115.279 183.012,110.642 183.012,110.642 191.043,115.279 191.017,124.507 
					191.016,124.507 				"/>
				
					<rect x="186.991" y="121.092" transform="matrix(0.5 -0.866 0.866 0.5 -15.389 224.8033)" style="fill:#FFFFFF;" width="0" height="9.273"/>
				
					<rect x="186.859" y="167.542" transform="matrix(0.5 -0.866 0.866 0.5 -55.6816 247.9131)" style="fill:#FFFFFF;" width="0" height="9.274"/>
				<polygon style="fill:#FFFFFF;" points="183.094,81.552 191.125,86.188 183.094,81.552 				"/>
				<polygon style="fill:#FFFFFF;" points="186.478,87.051 191.115,89.729 191.089,98.957 191.115,89.729 				"/>
				<polygon style="fill:#FFFFFF;" points="183.058,94.32 191.089,98.957 183.058,94.32 				"/>
				<polygon style="fill:#FFFFFF;" points="183.022,107.095 191.053,111.732 183.022,107.095 				"/>
				<polygon style="fill:#FFFFFF;" points="186.202,184.595 190.839,187.272 190.813,196.5 190.812,196.5 190.838,187.272 				"/>
				
					<rect x="186.932" y="141.998" transform="matrix(0.5 -0.866 0.866 0.5 -33.5237 235.205)" style="fill:#FFFFFF;" width="0" height="9.273"/>
				
					<rect x="186.895" y="154.773" transform="matrix(0.5 -0.866 0.866 0.5 -44.6037 241.5659)" style="fill:#FFFFFF;" width="0" height="9.274"/>
				<polygon style="fill:#FFFFFF;" points="183.048,97.867 191.079,102.504 191.053,111.732 183.022,107.095 				"/>
				<polygon style="fill:#FFFFFF;" points="191.016,124.507 182.985,119.87 183.012,110.642 191.042,115.279 				"/>
				<polygon style="fill:#FFFFFF;" points="182.88,157.092 190.911,161.728 190.885,170.957 182.854,166.32 				"/>
				<polygon style="fill:#FFFFFF;" points="190.849,183.725 182.817,179.088 182.844,169.86 190.875,174.497 				"/>
				<polygon style="fill:#FFFFFF;" points="182.916,144.316 190.947,148.953 190.921,158.182 182.89,153.545 				"/>
				<path style="fill:#1e56a0;" d="M180.151,206.117l13.208,7.626l0.188-66.265l-13.208-7.626L180.151,206.117z M182.844,169.86
					l8.031,4.637v0l-0.026,9.228l-8.031-4.637L182.844,169.86L182.844,169.86z M190.921,158.182l-8.031-4.637l0.026-9.228l0,0
					l8.031,4.637l0,0L190.921,158.182z M190.885,170.957l-8.031-4.637l0.026-9.228v0l8.031,4.637v0L190.885,170.957z M190.812,196.5
					L190.812,196.5l-8.031-4.637l0.026-9.228l3.394,1.96l4.637,2.677L190.812,196.5L190.812,196.5z M182.745,204.632l0.026-9.228
					l8.031,4.637l-0.026,9.228L182.745,204.632z"/>
				<path style="fill:#1e56a0;" d="M180.355,134.124l13.208,7.626l0.188-66.271l-13.208-7.626L180.355,134.124z M191.125,86.188
					l-8.031-4.637l0,0h0l0.026-9.229l8.031,4.637L191.125,86.188z M191.089,98.957l-8.031-4.637l0,0l0,0l0.026-9.228l3.395,1.96
					l4.637,2.677L191.089,98.957z M191.053,111.732l-8.031-4.637l0,0l0.026-9.228l8.031,4.637l0,0L191.053,111.732z
					 M191.017,124.507L191.017,124.507l-8.031-4.637l0.026-9.228v0l8.031,4.637L191.017,124.507z M190.98,137.276l-8.031-4.637
					l0.026-9.228l0,0v0l8.031,4.637v0l0,0L190.98,137.276z"/>
				<path style="fill:#455A64;" d="M180.151,206.117l13.208,7.626l0.188-66.265l-13.208-7.626L180.151,206.117z M182.844,169.86
					l8.031,4.637v0l-0.026,9.228l-8.031-4.637L182.844,169.86L182.844,169.86z M190.921,158.182l-8.031-4.637l0.026-9.228l0,0
					l8.031,4.637l0,0L190.921,158.182z M190.885,170.957l-8.031-4.637l0.026-9.228v0l8.031,4.637v0L190.885,170.957z M190.812,196.5
					L190.812,196.5l-8.031-4.637l0.026-9.228l3.394,1.96l4.637,2.677L190.812,196.5L190.812,196.5z M182.745,204.632l0.026-9.228
					l8.031,4.637l-0.026,9.228L182.745,204.632z"/>
				<path style="fill:#455A64;" d="M180.355,134.124l13.208,7.626l0.188-66.271l-13.208-7.626L180.355,134.124z M191.125,86.188
					l-8.031-4.637l0,0h0l0.026-9.229l8.031,4.637L191.125,86.188z M191.089,98.957l-8.031-4.637l0,0l0,0l0.026-9.228l3.395,1.96
					l4.637,2.677L191.089,98.957z M191.053,111.732l-8.031-4.637l0,0l0.026-9.228l8.031,4.637l0,0L191.053,111.732z
					 M191.017,124.507L191.017,124.507l-8.031-4.637l0.026-9.228v0l8.031,4.637L191.017,124.507z M190.98,137.276l-8.031-4.637
					l0.026-9.228l0,0v0l8.031,4.637v0l0,0L190.98,137.276z"/>
				<polygon style="fill:#FFFFFF;" points="183.058,94.32 183.084,85.092 186.478,87.051 191.115,89.729 191.089,98.957 
					183.058,94.32 				"/>
				<polygon style="fill:#FFFFFF;" points="180.543,67.853 180.557,62.706 193.766,70.332 193.751,75.479 180.543,67.853 				"/>
				<polygon style="fill:#FFFFFF;" points="183.094,81.552 183.12,72.323 191.151,76.96 191.125,86.188 183.094,81.552 				"/>
				<polygon style="fill:#FFFFFF;" points="182.975,123.41 182.975,123.411 191.006,128.047 191.006,128.047 190.98,137.276 
					182.949,132.639 				"/>
				<polygon style="fill:#FFFFFF;" points="182.781,191.863 182.807,182.635 186.202,184.595 190.838,187.272 190.812,196.5 
					190.812,196.5 				"/>
				<polygon style="fill:#FFFFFF;" points="190.802,200.04 190.776,209.269 182.745,204.632 182.771,195.404 				"/>
			</g>
			<g>
				<g>
					<polygon style="fill:#37474F;" points="352.366,264.715 352.354,268.921 284.715,229.298 284.727,225.092 					"/>
				</g>
				<g style="enable-background:new    ;">
					<g>
						<polygon style="fill:#37474F;" points="331.951,279.841 331.939,284.056 284.639,256.174 284.65,251.96 						"/>
					</g>
					<g>
						<polygon style="fill:#37474F;" points="320.051,258.931 320.039,263.145 284.678,242.157 284.69,237.943 						"/>
					</g>
					<g>
						<polygon style="fill:#37474F;" points="352.308,285.158 352.296,289.372 284.657,249.749 284.669,245.535 						"/>
					</g>
					<g>
						<polygon style="fill:#37474F;" points="352.347,271.141 352.335,275.347 284.696,235.723 284.708,231.517 						"/>
					</g>
				</g>
			</g>
			<g>
				<g>
					<path style="fill:#E0E0E0;" d="M224.885,205.12c4.472,2.582,8.085,8.84,8.07,13.979c-0.015,5.139-3.651,7.211-8.123,4.629
						c-4.472-2.582-8.085-8.84-8.07-13.979C216.777,204.611,220.413,202.538,224.885,205.12z"/>
				</g>
				<g>
					<path style="fill:#E0E0E0;" d="M224.952,181.541c4.472,2.582,8.085,8.84,8.07,13.979c-0.014,5.139-3.651,7.211-8.123,4.629
						c-4.472-2.582-8.085-8.84-8.07-13.979C216.844,181.032,220.48,178.959,224.952,181.541z"/>
				</g>
				<g>
					<path style="fill:#E0E0E0;" d="M246.951,194.242c4.472,2.582,8.085,8.84,8.07,13.979c-0.014,5.139-3.651,7.211-8.123,4.629
						c-4.472-2.582-8.085-8.84-8.07-13.979C238.842,193.733,242.479,191.66,246.951,194.242z"/>
				</g>
				<g>
					<path style="fill:#E0E0E0;" d="M268.876,230.518c4.472,2.582,8.085,8.84,8.07,13.978c-0.014,5.139-3.651,7.211-8.123,4.629
						c-4.472-2.582-8.085-8.84-8.07-13.979C260.768,230.009,264.404,227.936,268.876,230.518z"/>
				</g>
				<g>
					<path style="fill:#E0E0E0;" d="M268.943,206.939c4.472,2.582,8.085,8.84,8.07,13.978c-0.014,5.139-3.651,7.211-8.123,4.629
						c-4.472-2.582-8.085-8.84-8.07-13.979C260.835,206.43,264.471,204.357,268.943,206.939z"/>
				</g>
				<g>
					<path style="fill:#E0E0E0;" d="M246.884,217.821c4.472,2.582,8.085,8.84,8.07,13.979c-0.015,5.139-3.651,7.211-8.123,4.629
						c-4.472-2.582-8.085-8.84-8.07-13.979C238.776,217.312,242.412,215.239,246.884,217.821z"/>
				</g>
			</g>
		</g>
		<g>
			<path style="fill:#1e56a0;" d="M440.63,130.104l-86.683-50.046c-0.685-0.395-1.305-0.431-1.754-0.172l0,0l-6.484,4.648
				l0.001,0.001c0.448-0.252,1.062-0.214,1.74,0.178l86.683,50.046c1.367,0.789,2.471,2.709,2.466,4.28l-0.336,77.39
				c-0.002,0.759-0.266,1.294-0.689,1.563l0.002,0.004l6.564-4.701l-0.005-0.01c0.383-0.282,0.624-0.793,0.626-1.511l0.336-77.39
				C443.1,132.813,441.997,130.894,440.63,130.104z"/>
			<path style="fill:#455A64;" d="M436.263,216.429l0.336-77.39c0.005-1.571-1.099-3.491-2.466-4.28L347.45,84.713
				c-0.678-0.392-1.292-0.429-1.74-0.178c-0.455,0.255-0.74,0.809-0.742,1.601l-0.336,77.39c-0.004,1.571,1.099,3.491,2.466,4.28
				l86.683,50.046c0.707,0.408,1.341,0.427,1.793,0.14C435.997,217.723,436.261,217.188,436.263,216.429z"/>
			<g>
				<g style="opacity:0.3;">
					<polygon points="358.142,141.412 358.116,150.587 350.131,145.977 350.157,136.802 					"/>
				</g>
				<g style="opacity:0.3;">
					<polygon points="358.142,158.585 358.116,167.761 350.131,163.151 350.157,153.975 					"/>
				</g>
				<g>
					<polygon style="fill:#FFFFFF;" points="366.132,163.195 366.106,172.37 358.121,167.76 358.147,158.585 					"/>
				</g>
				<g style="opacity:0.5;">
					<polygon style="fill:#FFFFFF;" points="410.377,174.372 410.367,177.952 362.852,150.52 362.863,146.939 					"/>
				</g>
				<g style="opacity:0.3;">
					<polygon points="358.182,127.338 358.156,136.513 350.171,131.903 350.197,122.728 					"/>
				</g>
				<g style="opacity:0.5;">
					<polygon style="fill:#FFFFFF;" points="410.457,146.216 410.447,149.804 362.932,122.372 362.942,118.784 					"/>
				</g>
				<g style="opacity:0.5;">
					<polygon style="fill:#FFFFFF;" points="410.417,160.298 410.407,163.878 362.892,136.446 362.902,132.865 					"/>
				</g>
				<g style="opacity:0.3;">
					<polygon points="358.222,113.257 358.196,122.439 350.211,117.829 350.237,108.646 					"/>
				</g>
				<g>
					<polygon style="fill:#FFFFFF;" points="431.099,155.332 431.073,164.515 414.67,155.044 414.696,145.862 					"/>
				</g>
				<g>
					<polygon style="fill:#FFFFFF;" points="431.02,183.488 430.993,192.663 414.59,183.193 414.616,174.018 					"/>
				</g>
				<g>
					<polygon style="fill:#FFFFFF;" points="431.059,169.414 431.033,178.589 414.63,169.119 414.656,159.943 					"/>
				</g>
			</g>
			<g style="opacity:0.3;">
				<path d="M434.133,134.753c1.367,0.789,2.471,2.709,2.466,4.28l-0.021,7.402l-53.301-30.773l0.029-10.253L434.133,134.753z"/>
			</g>
			<g>
				<polygon style="fill:#FFFFFF;" points="378.494,107.206 348.775,90.048 348.765,93.445 378.484,110.604 				"/>
				<g>
					<polygon style="fill:#FFFFFF;" points="426.793,133.082 426.791,134.038 432.779,137.495 432.782,136.539 					"/>
					<polygon style="fill:#FFFFFF;" points="426.777,138.947 432.765,142.404 432.768,141.457 426.779,137.999 					"/>
					<polygon style="fill:#FFFFFF;" points="426.786,135.677 432.774,139.135 432.777,138.178 426.789,134.721 					"/>
					<polygon style="fill:#FFFFFF;" points="426.781,137.308 432.77,140.765 432.772,139.818 426.784,136.36 					"/>
				</g>
			</g>
			<path style="fill:#37474F;" d="M440.63,130.104l-86.683-50.046c-0.685-0.395-1.305-0.431-1.754-0.172l0,0l-6.484,4.648
				l0.001,0.001c0.448-0.252,1.062-0.214,1.74,0.178l86.683,50.046c0.763,0.441,1.436,1.237,1.888,2.125l6.813-3.914
				C442.431,131.798,441.602,130.665,440.63,130.104z"/>
			<path style="fill:#263238;" d="M436.02,136.884c0.358,0.702,0.58,1.461,0.578,2.155l-0.336,77.39
				c-0.002,0.759-0.266,1.294-0.689,1.563l0.002,0.004l6.564-4.701l-0.005-0.01c0.383-0.282,0.624-0.793,0.626-1.511l0.336-77.39
				c0.001-0.454-0.099-0.937-0.262-1.414L436.02,136.884z"/>
		</g>
		<g>
			<path style="fill:#1e56a0;" d="M306.762,74.473l-86.683-50.046c-0.685-0.395-1.305-0.431-1.754-0.172l0,0l-6.484,4.648
				l0.001,0.001c0.448-0.252,1.062-0.214,1.74,0.178l86.683,50.046c1.367,0.789,2.47,2.709,2.466,4.28l-0.336,35.392
				c-0.002,0.759-0.266,1.294-0.689,1.563l0.002,0.004l6.564-4.701l-0.005-0.01c0.383-0.282,0.624-0.794,0.626-1.511l0.336-35.392
				C309.232,77.182,308.128,75.263,306.762,74.473z"/>
			<path style="fill:#455A64;" d="M302.394,118.8l0.336-35.392c0.004-1.571-1.099-3.491-2.466-4.28l-86.683-50.046
				c-0.678-0.392-1.292-0.429-1.74-0.178c-0.455,0.255-0.74,0.809-0.742,1.601l-0.336,35.392c-0.005,1.571,1.099,3.491,2.466,4.28
				l86.683,50.046c0.707,0.408,1.341,0.427,1.793,0.14C302.128,120.094,302.392,119.559,302.394,118.8z"/>
			<g>
				<g style="opacity:0.5;">
					<polygon style="fill:#FFFFFF;" points="227.467,57.501 227.431,70.154 216.428,63.802 216.464,51.148 					"/>
				</g>
				<g style="opacity:0.5;">
					<polygon style="fill:#FFFFFF;" points="244.625,67.004 244.589,79.658 233.586,73.305 233.622,60.651 					"/>
				</g>
				<g style="opacity:0.5;">
					<polygon style="fill:#FFFFFF;" points="261.784,76.507 261.748,89.161 250.744,82.808 250.78,70.154 					"/>
				</g>
				<g style="opacity:0.5;">
					<polygon style="fill:#FFFFFF;" points="278.942,86.011 278.906,98.664 267.903,92.312 267.939,79.658 					"/>
				</g>
				<g style="opacity:0.5;">
					<polygon style="fill:#FFFFFF;" points="296.1,95.514 296.064,108.168 285.061,101.815 285.097,89.161 					"/>
				</g>
			</g>
			<g style="opacity:0.3;">
				<path d="M300.264,79.122c1.367,0.789,2.47,2.709,2.466,4.28l-0.021,7.402l-53.301-30.773l0.029-10.253L300.264,79.122z"/>
			</g>
			<g>
				<polygon style="fill:#FFFFFF;" points="244.625,51.575 214.906,34.417 214.897,37.815 244.616,54.973 				"/>
				<g>
					<polygon style="fill:#FFFFFF;" points="292.925,77.451 292.922,78.407 298.91,81.865 298.913,80.908 					"/>
					<polygon style="fill:#FFFFFF;" points="292.908,83.316 298.896,86.773 298.899,85.826 292.911,82.369 					"/>
					<polygon style="fill:#FFFFFF;" points="292.917,80.046 298.906,83.504 298.908,82.548 292.92,79.09 					"/>
					<polygon style="fill:#FFFFFF;" points="292.913,81.677 298.901,85.134 298.904,84.187 292.915,80.729 					"/>
				</g>
			</g>
			<path style="fill:#37474F;" d="M306.762,74.473l-86.683-50.046c-0.685-0.395-1.305-0.431-1.754-0.172l0,0l-6.484,4.648
				l0.001,0.001c0.448-0.252,1.062-0.214,1.74,0.178l86.683,50.046c0.763,0.441,1.436,1.237,1.888,2.125l6.813-3.914
				C308.563,76.167,307.733,75.034,306.762,74.473z"/>
			<path style="fill:#263238;" d="M302.152,81.253c0.358,0.703,0.58,1.461,0.578,2.155l-0.336,35.392
				c-0.002,0.759-0.266,1.294-0.689,1.563l0.002,0.004l6.564-4.701l-0.005-0.01c0.383-0.282,0.624-0.794,0.626-1.511l0.336-35.392
				c0.001-0.454-0.099-0.937-0.262-1.414L302.152,81.253z"/>
		</g>
		<g>
			<path style="fill:#1e56a0;" d="M440.63,230.463l-86.683-50.046c-0.685-0.395-1.305-0.431-1.754-0.172l0,0l-6.484,4.648
				l0.001,0.001c0.448-0.251,1.062-0.214,1.74,0.178l86.683,50.046c1.367,0.789,2.471,2.709,2.466,4.28l-0.336,118.422
				c-0.002,0.759-0.266,1.294-0.689,1.563l0.002,0.004l6.564-4.701l-0.005-0.01c0.383-0.282,0.624-0.793,0.626-1.511l0.336-118.422
				C443.1,233.172,441.997,231.252,440.63,230.463z"/>
			<path style="fill:#1e56a0;" d="M436.263,357.82l0.336-118.422c0.005-1.571-1.099-3.491-2.466-4.28l-86.683-50.046
				c-0.678-0.392-1.292-0.429-1.74-0.178c-0.455,0.255-0.74,0.809-0.742,1.601l-0.336,118.422c-0.004,1.571,1.099,3.491,2.466,4.28
				l86.683,50.047c0.707,0.408,1.341,0.427,1.793,0.14C435.997,359.114,436.261,358.578,436.263,357.82z"/>
			<g style="opacity:0.3;">
				<path d="M434.133,235.112c1.367,0.789,2.471,2.709,2.466,4.28l-0.021,7.402l-53.301-30.773l0.029-10.253L434.133,235.112z"/>
			</g>
			<g>
				<polygon style="fill:none;" points="430.16,315.574 430.16,315.574 429.575,314.561 428.479,315.194 429.575,314.561 				"/>
				<polygon style="fill:none;" points="430.233,289.697 430.233,289.697 429.648,288.684 428.553,289.308 429.648,288.684 				"/>
				<polygon style="fill:none;" points="427.494,276.965 426.905,277.3 427.494,276.965 				"/>
				<polygon style="fill:none;" points="381.415,278.888 379.741,275.99 380.33,275.663 379.741,275.99 381.415,278.888 				"/>
				<polygon style="fill:none;" points="427.7,344.965 427.303,344.273 426.714,344.609 427.303,344.273 				"/>
				<polygon style="fill:none;" points="428.479,315.194 427.391,313.3 426.802,313.635 427.391,313.3 				"/>
				<polygon style="fill:none;" points="380.301,286.112 381.389,288.006 382.485,287.373 383.07,288.387 383.07,288.387 
					382.485,287.373 381.389,288.006 380.301,286.112 379.712,286.448 379.712,286.448 				"/>
				<rect x="380.08" y="260.065" style="fill:none;" width="0" height="0.678"/>
				<polygon style="fill:none;" points="382.982,319.36 382.982,319.36 382.397,318.347 381.302,318.98 382.397,318.347 				"/>
				<polygon style="fill:none;" points="379.624,317.422 380.213,317.086 380.213,317.086 379.624,317.422 380.685,319.259 				"/>
				<polygon style="fill:none;" points="429.487,345.534 430.072,346.548 429.487,345.534 428.391,346.167 428.391,346.167 				"/>
				<polygon style="fill:none;" points="426.875,287.758 426.875,287.759 427.464,287.423 				"/>
				<polygon style="fill:none;" points="429.716,264.677 428.621,265.301 429.716,264.677 				"/>
				<polygon style="fill:#FFFFFF;" points="354.653,268.739 348.568,265.226 348.547,272.619 354.632,276.133 				"/>
				<polygon style="fill:#FFFFFF;" points="354.683,258.281 348.598,254.768 348.577,262.161 354.662,265.674 				"/>
				<polygon style="fill:#FFFFFF;" points="378.494,207.564 348.775,190.406 348.765,193.804 378.484,210.962 				"/>
				<polygon style="fill:#FFFFFF;" points="430.301,265.682 429.716,264.677 428.621,265.301 427.532,263.416 426.943,263.743 
					428.617,266.642 				"/>
				<polygon style="fill:#FFFFFF;" points="354.726,242.862 348.641,239.349 348.62,246.742 354.705,250.256 				"/>
				<polygon style="fill:#FFFFFF;" points="354.756,232.404 348.671,228.891 348.65,236.284 354.735,239.798 				"/>
				<polygon style="fill:#1e56a0;" points="348.71,215.333 348.689,222.727 424.532,266.515 424.553,259.122 				"/>
				<path style="fill:#1e56a0;" d="M424.532,266.515l8.158,4.71l0.021-7.393l-8.158-4.71L424.532,266.515z M427.532,263.416
					l1.089,1.886l1.096-0.624l0,0l0.585,1.005l-1.684,0.96l-1.674-2.899L427.532,263.416z"/>
				<polygon style="fill:#1e56a0;" points="348.741,204.32 348.72,211.714 424.563,255.502 424.584,248.108 				"/>
				<polygon style="fill:#FFFFFF;" points="430.333,254.668 429.748,253.655 428.652,254.279 427.563,252.394 426.974,252.73 
					428.648,255.62 				"/>
				<path style="fill:#1e56a0;" d="M424.563,255.502l8.158,4.71l0.021-7.393l-8.158-4.71L424.563,255.502z M427.563,252.394
					l1.089,1.885l1.096-0.624l0.585,1.013l-1.685,0.952l-1.674-2.89L427.563,252.394z"/>
				<polygon style="fill:#FFFFFF;" points="383.173,252.052 382.588,251.038 381.492,251.671 380.404,249.777 379.815,250.113 
					381.489,253.012 				"/>
				<path style="fill:#1e56a0;" d="M385.561,257.595l0.021-7.393l-8.158-4.71l-0.021,7.393L385.561,257.595z M380.404,249.777
					l1.089,1.894l1.096-0.633l0.585,1.013l-1.685,0.96l-1.674-2.899L380.404,249.777z"/>
				<polygon style="fill:#1e56a0;" points="357.804,252.044 377.374,263.343 377.374,263.343 377.374,263.343 377.395,255.95 
					357.825,244.651 				"/>
				<polygon style="fill:#1e56a0;" points="377.424,245.492 357.854,234.193 357.833,241.586 377.403,252.885 				"/>
				<polygon style="fill:#FFFFFF;" points="381.459,263.47 383.143,262.51 382.559,261.497 381.463,262.121 380.374,260.236 
					379.785,260.571 				"/>
				<path style="fill:#1e56a0;" d="M377.374,263.343l8.158,4.71l0.021-7.393l-8.158-4.71l0,0L377.374,263.343L377.374,263.343z
					 M380.374,260.236L380.374,260.236l1.089,1.885l1.096-0.624l0.585,1.013l-1.685,0.96l-1.673-2.899v0L380.374,260.236z"/>
				<path style="fill:#1e56a0;" d="M424.464,290.531l8.158,4.71l0.021-7.393l-8.158-4.71L424.464,290.531z M426.875,287.758
					l0.589-0.336l1.089,1.886l1.096-0.624l0.585,1.013l0,0l0,0l-1.685,0.96L426.875,287.758L426.875,287.758L426.875,287.758z"/>
				<path style="fill:#1e56a0;" d="M424.42,305.949l8.158,4.71l0.021-7.393l-8.158-4.71L424.42,305.949z M427.42,302.85l1.089,1.886
					l1.096-0.624l0.585,1.005l-1.685,0.96l-1.674-2.899L427.42,302.85z"/>
				<path style="fill:#1e56a0;" d="M424.39,316.407l8.158,4.71l0.021-7.393l-8.158-4.71L424.39,316.407z M427.391,313.3l1.089,1.894
					l1.096-0.633l0.585,1.013l0,0l0,0l-1.685,0.96l-1.674-2.899L427.391,313.3z"/>
				<polygon style="fill:#1e56a0;" points="404.841,297.715 404.82,305.109 424.39,316.407 424.39,316.407 424.411,309.014 				"/>
				<polygon style="fill:#1e56a0;" points="404.871,287.257 404.85,294.65 424.42,305.949 424.441,298.556 				"/>
				<polygon style="fill:#1e56a0;" points="404.914,271.838 404.893,279.232 424.464,290.531 424.485,283.137 				"/>
				<polygon style="fill:#1e56a0;" points="404.944,261.38 404.923,268.773 424.493,280.072 424.514,272.679 				"/>
				<polygon style="fill:#FFFFFF;" points="430.263,279.239 429.678,278.226 428.582,278.859 427.494,276.965 426.905,277.3 
					428.578,280.199 				"/>
				<path style="fill:#1e56a0;" d="M424.514,272.679l-0.021,7.393l8.158,4.71l0.021-7.393L424.514,272.679L424.514,272.679z
					 M427.494,276.965L427.494,276.965l1.089,1.894l1.096-0.633l0.585,1.013l-1.685,0.96l-1.674-2.899L427.494,276.965z"/>
				<polygon style="fill:#FFFFFF;" points="395.71,273.93 401.795,277.443 401.816,270.05 395.731,266.536 				"/>
				<polygon style="fill:#FFFFFF;" points="401.846,259.591 395.761,256.078 395.74,263.472 401.825,266.985 				"/>
				<polygon style="fill:#FFFFFF;" points="428.549,290.657 430.233,289.697 430.233,289.697 429.648,288.684 428.553,289.308 
					427.464,287.423 426.875,287.759 426.875,287.759 				"/>
				<polygon style="fill:#1e56a0;" points="357.76,267.463 377.33,278.762 377.33,278.762 377.33,278.762 377.351,271.368 
					357.781,260.07 				"/>
				<path style="fill:#1e56a0;" d="M377.33,278.762l8.158,4.71l0.021-7.394l-8.158-4.71L377.33,278.762L377.33,278.762z
					 M380.33,275.663l1.089,1.886l1.096-0.624l0.585,1.005l-1.685,0.96l0,0h0l-1.674-2.899L380.33,275.663z"/>
				<polygon style="fill:#FFFFFF;" points="381.415,278.888 381.415,278.888 383.1,277.928 382.515,276.924 381.419,277.548 
					380.33,275.663 379.741,275.99 				"/>
				<polygon style="fill:#FFFFFF;" points="381.389,288.006 380.301,286.112 379.712,286.448 381.386,289.347 383.07,288.387 
					382.485,287.373 				"/>
				<path style="fill:#1e56a0;" d="M377.3,289.22L377.3,289.22L377.3,289.22l8.158,4.71l0.021-7.393l-8.158-4.71v0l0,0L377.3,289.22
					z M380.301,286.112l1.089,1.894l1.096-0.633l0.585,1.013l0,0l-1.685,0.96l-1.674-2.899v0L380.301,286.112z"/>
				<polygon style="fill:#FFFFFF;" points="365.222,296.972 365.243,289.579 359.158,286.066 359.137,293.459 				"/>
				<polygon style="fill:#1e56a0;" points="357.73,277.921 377.3,289.22 377.3,289.22 377.321,281.827 377.321,281.827 
					357.751,270.528 				"/>
				<polygon style="fill:#1e56a0;" points="377.233,312.8 377.233,312.8 348.48,296.199 348.459,303.593 377.212,320.194 
					377.233,312.8 				"/>
				<polygon style="fill:#FFFFFF;" points="380.685,319.259 381.298,320.32 382.982,319.36 382.397,318.347 381.302,318.98 
					380.213,317.086 379.624,317.422 				"/>
				<path style="fill:#1e56a0;" d="M377.233,312.8l-0.021,7.393l0,0l8.158,4.71l0.021-7.393L377.233,312.8L377.233,312.8z
					 M380.213,317.086L380.213,317.086l1.089,1.894l1.096-0.633l0.585,1.013l0,0l-1.685,0.96l-0.613-1.061l-1.061-1.838
					L380.213,317.086z"/>
				<polygon style="fill:#1e56a0;" points="424.323,339.988 395.57,323.387 395.549,330.78 424.302,347.381 424.302,347.381 
					424.302,347.381 				"/>
				<polygon style="opacity:0.3;" points="348.71,215.333 348.689,222.727 424.532,266.515 424.553,259.122 				"/>
				<polygon style="opacity:0.3;" points="348.741,204.32 348.72,211.714 424.563,255.502 424.584,248.108 				"/>
				<polygon style="opacity:0.3;" points="357.804,252.044 377.374,263.343 377.374,263.343 377.374,263.343 377.395,255.95 
					357.825,244.651 				"/>
				<polygon style="opacity:0.3;" points="377.424,245.492 357.854,234.193 357.833,241.586 377.403,252.885 				"/>
				<polygon style="opacity:0.3;" points="404.841,297.715 404.82,305.109 424.39,316.407 424.39,316.407 424.411,309.014 				"/>
				<polygon style="opacity:0.3;" points="404.871,287.257 404.85,294.65 424.42,305.949 424.441,298.556 				"/>
				<polygon style="opacity:0.3;" points="404.914,271.838 404.893,279.232 424.464,290.531 424.485,283.137 				"/>
				<polygon style="opacity:0.3;" points="404.944,261.38 404.923,268.773 424.493,280.072 424.514,272.679 				"/>
				<polygon style="opacity:0.3;" points="357.76,267.463 377.33,278.762 377.33,278.762 377.33,278.762 377.351,271.368 
					357.781,260.07 				"/>
				<polygon style="opacity:0.3;" points="357.73,277.921 377.3,289.22 377.3,289.22 377.321,281.827 377.321,281.827 
					357.751,270.528 				"/>
				<polygon style="opacity:0.3;" points="377.233,312.8 377.233,312.8 348.48,296.199 348.459,303.593 377.212,320.194 
					377.233,312.8 				"/>
				<polygon style="opacity:0.3;" points="424.323,339.988 395.57,323.387 395.549,330.78 424.302,347.381 424.302,347.381 
					424.302,347.381 				"/>
				<path style="fill:#1e56a0;" d="M424.323,339.988l-0.021,7.393l0,0l8.158,4.71l0.021-7.393L424.323,339.988L424.323,339.988z
					 M427.303,344.273l0.397,0.691l0.691,1.203l1.096-0.633l0.585,1.013l-1.685,0.96l-1.674-2.899L427.303,344.273z"/>
				<path style="opacity:0.4;" d="M424.532,266.515l8.158,4.71l0.021-7.393l-8.158-4.71L424.532,266.515z M427.532,263.416
					l1.089,1.886l1.096-0.624l0,0l0.585,1.005l-1.684,0.96l-1.674-2.899L427.532,263.416z"/>
				<path style="opacity:0.4;" d="M424.563,255.502l8.158,4.71l0.021-7.393l-8.158-4.71L424.563,255.502z M427.563,252.394
					l1.089,1.885l1.096-0.624l0.585,1.013l-1.685,0.952l-1.674-2.89L427.563,252.394z"/>
				<path style="opacity:0.4;" d="M385.561,257.595l0.021-7.393l-8.158-4.71l-0.021,7.393L385.561,257.595z M380.404,249.777
					l1.089,1.894l1.096-0.633l0.585,1.013l-1.685,0.96l-1.674-2.899L380.404,249.777z"/>
				<path style="opacity:0.4;" d="M377.374,263.343l8.158,4.71l0.021-7.393l-8.158-4.71l0,0L377.374,263.343L377.374,263.343z
					 M380.374,260.236L380.374,260.236l1.089,1.885l1.096-0.624l0.585,1.013l-1.685,0.96l-1.673-2.899v0L380.374,260.236z"/>
				<path style="opacity:0.4;" d="M424.464,290.531l8.158,4.71l0.021-7.393l-8.158-4.71L424.464,290.531z M426.875,287.758
					l0.589-0.336l1.089,1.886l1.096-0.624l0.585,1.013l0,0l0,0l-1.685,0.96L426.875,287.758L426.875,287.758L426.875,287.758z"/>
				<path style="opacity:0.4;" d="M424.42,305.949l8.158,4.71l0.021-7.393l-8.158-4.71L424.42,305.949z M427.42,302.85l1.089,1.886
					l1.096-0.624l0.585,1.005l-1.685,0.96l-1.674-2.899L427.42,302.85z"/>
				<path style="opacity:0.4;" d="M424.39,316.407l8.158,4.71l0.021-7.393l-8.158-4.71L424.39,316.407z M427.391,313.3l1.089,1.894
					l1.096-0.633l0.585,1.013l0,0l0,0l-1.685,0.96l-1.674-2.899L427.391,313.3z"/>
				<path style="opacity:0.4;" d="M424.514,272.679l-0.021,7.393l8.158,4.71l0.021-7.393L424.514,272.679L424.514,272.679z
					 M427.494,276.965L427.494,276.965l1.089,1.894l1.096-0.633l0.585,1.013l-1.685,0.96l-1.674-2.899L427.494,276.965z"/>
				<path style="opacity:0.4;" d="M377.33,278.762l8.158,4.71l0.021-7.394l-8.158-4.71L377.33,278.762L377.33,278.762z
					 M380.33,275.663l1.089,1.886l1.096-0.624l0.585,1.005l-1.685,0.96l0,0h0l-1.674-2.899L380.33,275.663z"/>
				<path style="opacity:0.4;" d="M377.3,289.22L377.3,289.22L377.3,289.22l8.158,4.71l0.021-7.393l-8.158-4.71v0l0,0L377.3,289.22z
					 M380.301,286.112l1.089,1.894l1.096-0.633l0.585,1.013l0,0l-1.685,0.96l-1.674-2.899v0L380.301,286.112z"/>
				<path style="opacity:0.4;" d="M377.233,312.8l-0.021,7.393l0,0l8.158,4.71l0.021-7.393L377.233,312.8L377.233,312.8z
					 M380.213,317.086L380.213,317.086l1.089,1.894l1.096-0.633l0.585,1.013l0,0l-1.685,0.96l-0.613-1.061l-1.061-1.838
					L380.213,317.086z"/>
				<path style="opacity:0.4;" d="M424.323,339.988l-0.021,7.393l0,0l8.158,4.71l0.021-7.393L424.323,339.988L424.323,339.988z
					 M427.303,344.273l0.397,0.691l0.691,1.203l1.096-0.633l0.585,1.013l-1.685,0.96l-1.674-2.899L427.303,344.273z"/>
				<polygon style="fill:#FFFFFF;" points="430.072,346.548 429.487,345.534 428.391,346.167 428.391,346.167 427.7,344.965 
					427.303,344.273 426.714,344.609 428.388,347.508 				"/>
				<polygon style="fill:#FFFFFF;" points="395.637,299.807 401.722,303.32 401.743,295.927 395.658,292.413 				"/>
				<polygon style="fill:#FFFFFF;" points="395.667,289.349 401.752,292.862 401.772,285.468 395.688,281.955 				"/>
				<polygon style="fill:#FFFFFF;" points="430.19,305.116 429.605,304.111 428.509,304.736 427.42,302.85 426.832,303.177 
					428.505,306.076 				"/>
				<polygon style="fill:#FFFFFF;" points="430.16,315.574 430.16,315.574 429.575,314.561 428.479,315.194 427.391,313.3 
					426.802,313.635 428.475,316.534 				"/>
				<polygon style="fill:#FFFFFF;" points="354.611,283.44 348.526,279.927 348.505,287.321 354.59,290.834 				"/>
				<polygon style="fill:#FFFFFF;" points="383.076,307.28 389.161,310.793 389.182,303.4 383.097,299.887 				"/>
				<polygon style="fill:#FFFFFF;" points="393.701,313.414 399.793,316.932 399.814,309.538 393.722,306.021 				"/>
				<polygon style="fill:#FFFFFF;" points="415.81,318.774 415.789,326.167 421.874,329.68 421.895,322.287 				"/>
				<polygon style="fill:#FFFFFF;" points="426.414,332.301 432.506,335.819 432.527,328.425 426.435,324.908 				"/>
				<g>
					<polygon style="fill:#FFFFFF;" points="426.793,233.441 426.791,234.397 432.779,237.854 432.782,236.898 					"/>
					<polygon style="fill:#FFFFFF;" points="426.777,239.306 432.765,242.763 432.768,241.816 426.779,238.358 					"/>
					<polygon style="fill:#FFFFFF;" points="426.786,236.036 432.774,239.493 432.777,238.537 426.789,235.08 					"/>
					<polygon style="fill:#FFFFFF;" points="426.781,237.667 432.77,241.124 432.772,240.176 426.784,236.719 					"/>
				</g>
			</g>
			<path style="opacity:0.3;fill:#FFFFFF;" d="M440.63,230.463l-86.683-50.046c-0.685-0.395-1.305-0.431-1.754-0.172l0,0
				l-6.484,4.648l0.001,0.001c0.448-0.251,1.062-0.214,1.74,0.178l86.683,50.046c0.763,0.441,1.436,1.237,1.888,2.125l6.813-3.914
				C442.431,232.157,441.602,231.024,440.63,230.463z"/>
			<path style="opacity:0.2;fill:#FFFFFF;" d="M436.02,237.243c0.358,0.702,0.58,1.461,0.578,2.155l-0.336,118.422
				c-0.002,0.759-0.266,1.294-0.689,1.563l0.002,0.004l6.564-4.701l-0.005-0.01c0.383-0.282,0.624-0.793,0.626-1.511l0.336-118.422
				c0.001-0.454-0.099-0.937-0.262-1.414L436.02,237.243z"/>
		</g>
	</g>
</g>
<g id="font_bohlam">
			<g>
				<polygon style="fill:#1e56a0;" points="190.46,80.29 215.919,134.827 171.328,146.909 145.862,92.367 				"/>
			</g>

			<g>
				<g>
					<path style="fill:#FFFFFF;" d="M190.971,126.143c0.12,0.521,0.162,0.98,0.118,1.374l-7.412,2.005
						c-0.357-0.288-0.706-0.662-1.041-1.118c-0.342-0.46-0.626-0.945-0.868-1.454c1.037-0.288,1.24-1.108,0.593-2.492
						c-0.263-0.571-0.647-1.228-1.131-1.967l-0.591-0.859l-6.124,1.664l0.262,0.948c0.248,0.932,0.46,1.58,0.638,1.954
						c0.355,0.76,0.774,1.28,1.258,1.559c0.447,0.258,0.951,0.312,1.51,0.162c0.242,0.509,0.419,1.03,0.539,1.543
						c0.12,0.521,0.155,0.976,0.118,1.374l-6.095,1.656c-0.364-0.292-0.713-0.666-1.048-1.122c-0.342-0.46-0.626-0.945-0.868-1.462
						c0.508-0.142,0.867-0.502,1.061-1.088c0.202-0.582,0.183-1.365-0.043-2.333l-5.227-22.018c-0.9-0.175-1.908-0.116-3.017,0.188
						c-0.576-1.228-0.844-2.327-0.791-3.274l7.49-2.033l16.448,22.959c0.605,0.859,1.254,1.496,1.932,1.896
						c0.678,0.391,1.264,0.524,1.757,0.39C190.681,125.113,190.858,125.634,190.971,126.143z M173.554,119.775l4.922-1.331
						l-6.92-10.131c-0.562-0.817-1.111-1.487-1.653-2.03L173.554,119.775"/>
				</g>
			</g>
		</g>
<g id="Character_2_1_">
	<g>
		<polygon style="fill:#FFA8A7;" points="200.346,146.251 203.964,149.605 197.74,184.216 193.9,206.787 180.686,208.326 
			186.091,184.216 196.325,144.314 		"/>
		<path style="fill:#1e56a0;" d="M195.101,204.021c-9.11-3.404-15.071,1.38-15.071,1.38l-1.491,38.66l16.259-9.304L195.101,204.021z
			"/>
		<path style="fill:#263238;" d="M195.101,204.021c-9.11-3.404-15.071,1.38-15.071,1.38l-1.491,38.66l16.259-9.304L195.101,204.021z
			"/>
		<path style="opacity:0.1;fill:#FFFFFF;" d="M195.101,204.021c-9.11-3.404-15.071,1.38-15.071,1.38l-1.491,38.66l16.259-9.304
			L195.101,204.021z"/>
		<g>
			<g>
				<path style="fill:#1e56a0;" d="M203.215,92.865c-1.497-0.864-2.717-0.169-2.722,1.558l-0.48,55.554
					c-0.005,1.727,1.207,3.826,2.704,4.69l66.869,38.607c1.497,0.864,2.717,0.169,2.722-1.558l0.48-55.554
					c0.005-1.727-1.207-3.826-2.704-4.69L203.215,92.865z"/>
			</g>
			<g>
				<g style="enable-background:new    ;">
					<g>
						<polygon style="fill:#FFFFFF;" points="224.375,121.149 206.208,135.454 206.169,149.428 266.592,184.314 266.632,170.339 
							255.117,147.468 244.777,155.495 248.432,166.854 243.126,156.768 						"/>
					</g>
					<g>
						<path style="fill:#FFFFFF;" d="M244.222,128.193c-2.844-1.641-5.157-0.323-5.167,2.945c-0.009,3.268,2.29,7.249,5.133,8.891
							c2.844,1.642,5.158,0.323,5.167-2.944C249.365,133.816,247.067,129.835,244.222,128.193z"/>
					</g>
				</g>
			</g>
		</g>
		<path style="fill:#FFA8A7;" d="M242.772,225.9l14.355-4.785l9.453-35.699c0.221-1.044,0.128-2.131-0.267-3.122l-0.994-2.49
			c-0.524-1.312-0.771-2.718-0.725-4.13l0.178-5.458c0.029-0.898,0.766-1.611,1.664-1.611l0,0c0.806,0,1.496,0.577,1.639,1.37
			l0.854,4.737l2.002,2.302l1.621-6.498v-8.46l4.275,6.167c1.098,1.594,1.536,3.551,1.221,5.461l-1.711,10.365l-4.598,40.129
			c-0.678,5.92-4.587,10.974-10.147,13.12l-15.083,5.82L242.772,225.9z"/>
		<g>
			<g>
				<g>
					<path style="fill:#263238;" d="M212.008,443.083c0.778,2.45,3.464,3.851,6.026,4.055c2.562,0.203,5.093-0.517,7.622-0.975
						c5.662-1.026,11.122-0.009,16.769-0.142c1.853-0.043,3.722-0.129,5.515-0.599c1.793-0.471,3.523-1.359,4.715-2.779
						c0.704-0.838,1.186-1.88,1.357-2.956c0.277,1.617-0.293,3.345-1.357,4.612c-1.192,1.42-2.922,2.308-4.715,2.779
						c-1.793,0.471-3.662,0.556-5.515,0.599c-5.647,0.133-11.107-0.884-16.769,0.142c-2.529,0.458-5.06,1.178-7.622,0.975
						c-2.562-0.204-5.248-1.606-6.026-4.055c-0.268-0.843-0.285-1.725-0.197-2.61C211.85,442.451,211.909,442.77,212.008,443.083z"
						/>
					<path style="fill:#37474F;" d="M212.154,438.391c0.347-1.715,0.694-3.43,1.042-5.145c0.183-0.907,0.376-1.837,0.872-2.618
						c0.496-0.782,1.369-1.394,2.29-1.309c3.101-0.413,7.461-1.535,10.038,0.239c4.033,2.776,8.974,4.211,13.868,4.027
						c2.562-0.096,5.127-0.621,7.671-0.309c2.545,0.312,5.193,1.729,5.948,4.179c0.224,0.725,0.25,1.488,0.132,2.234
						c-0.171,1.076-0.654,2.118-1.357,2.956c-1.192,1.42-2.922,2.308-4.715,2.779c-1.793,0.471-3.662,0.556-5.515,0.599
						c-5.647,0.133-11.107-0.884-16.769,0.142c-2.529,0.458-5.06,1.178-7.622,0.975c-2.562-0.204-5.248-1.605-6.026-4.055
						c-0.099-0.313-0.158-0.632-0.197-0.954C211.665,440.9,211.905,439.621,212.154,438.391z"/>
				</g>
				<path style="fill:#FFA8A7;" d="M227.146,424.169l0.221,6.702c0.047,1.424-1.039,2.646-2.461,2.74
					c-2.302,0.152-4.544,0.143-6.755-0.065c-1.882-0.177-3.353-1.703-3.454-3.59l-0.266-4.949L227.146,424.169z"/>
			</g>
			<g>
				<g>
					<path style="fill:#263238;" d="M183.387,420.603c0.07,0.996,0.308,1.977,0.897,2.768c0.74,0.993,1.945,1.552,3.163,1.78
						c2.941,0.551,6.149-0.77,7.85-3.231c0.843-1.22,1.322-2.656,2.12-3.906c1.107-1.734,2.768-3.028,4.401-4.28
						c1.633-1.252,3.302-2.532,4.435-4.249c1.096-1.662,1.598-3.839,0.848-5.67c0.156,0.224,0.299,0.46,0.415,0.713
						c0.882,1.924,0.36,4.267-0.796,6.037c-1.155,1.771-2.859,3.09-4.525,4.38c-1.666,1.29-3.362,2.624-4.491,4.412
						c-0.814,1.288-1.303,2.769-2.163,4.026c-1.736,2.538-5.009,3.899-8.01,3.331c-1.242-0.235-2.473-0.811-3.228-1.836
						c-0.796-1.08-0.964-2.504-0.938-3.85C183.368,420.887,183.381,420.746,183.387,420.603z"/>
					<path style="fill:#37474F;" d="M185.42,412.19c2.037-3.571,6.239-6.169,9.48-8.698c1.839-1.435,3.957-2.66,6.282-2.853
						c2.325-0.193,4.871,0.873,5.852,2.99c0.028,0.061,0.043,0.125,0.068,0.186c0.751,1.831,0.248,4.008-0.848,5.67
						c-1.132,1.718-2.802,2.997-4.435,4.249c-1.633,1.252-3.294,2.546-4.401,4.28c-0.798,1.25-1.277,2.686-2.12,3.906
						c-1.701,2.462-4.909,3.783-7.85,3.231c-1.218-0.228-2.423-0.787-3.163-1.78c-0.589-0.791-0.827-1.773-0.897-2.768
						c-0.023-0.323-0.028-0.647-0.022-0.967C183.418,417.035,184.131,414.45,185.42,412.19z"/>
				</g>
				<path style="fill:#FFA8A7;" d="M194.255,409.094v6.091c-5.558,2.322-9.479-0.419-9.479-0.419l-0.571-5.482L194.255,409.094z"/>
			</g>
			<path style="fill:#1e56a0;" d="M182.606,298.582c-1.827,5.482,0.419,31.52,1.485,56.493c-3.959,9.441-2.893,36.241-0.609,55.275
				c0,0,7.956,2.602,15.113,0.166l4.988-52.7l1.247-29.693c0,0,2.255,26.343,4.844,43.245c-2.436,12.943-3.405,14.758,0.431,55.475
				c0,0,9.923,3.302,17.232-0.283c3.401-55.935,2.151-106.907,1.506-125.237L182.606,298.582z"/>
			<path style="opacity:0.3;" d="M182.606,298.582c-1.827,5.482,0.419,31.52,1.485,56.493c-3.959,9.441-2.893,36.241-0.609,55.275
				c0,0,7.956,2.602,15.113,0.166l4.988-52.7l1.247-29.693c0,0,2.255,26.343,4.844,43.245c-2.436,12.943-3.405,14.758,0.431,55.475
				c0,0,9.923,3.302,17.232-0.283c3.401-55.935,2.151-106.907,1.506-125.237L182.606,298.582z"/>
			<path style="opacity:0.3;" d="M204.069,346.205l1.017-24.217c-6.259,0-12.067-4.678-16.483-9.113
				c4.243,7.558,12.466,10.908,12.466,10.908L204.069,346.205z"/>
		</g>
		<path style="fill:#263238;" d="M229.798,302.807c-27.925,11.7-46.021,1.131-48.478-4.368c1.287-19.305-3.276-41.887-2.925-51.481
			c0.351-9.594,1.528-20.402,16.403-18.235l15.82,1.543l8.026,1.95l9.626,19.992L229.798,302.807z"/>
		<g>
			<path style="fill:#263238;" d="M194.798,221.139c-0.945,0.126-2.442-0.346-3.09-1.046c-0.648-0.699-0.931-1.72-0.733-2.654
				c-0.936-0.17-1.766-0.843-2.126-1.724c-0.359-0.881-0.056-2.114,0.495-2.89c-1.355-0.342-2.54-1.309-3.146-2.569
				c-0.606-1.26-0.718-2.89-0.14-4.163c-1.49-0.38-2.738-1.593-3.161-3.071c-0.423-1.479-0.167-3.399,0.898-4.509
				c-1.301-1.693-1.584-4.111-0.709-6.059c0.875-1.947,3.073-3.359,5.202-3.511c-0.328-2.051,0.472-4.247,2.042-5.608
				c1.57-1.36,3.769-1.742,5.752-1.125c0.68-1.734,2.33-3.05,4.172-3.329c1.842-0.278,3.876,0.293,5.038,1.749
				c0.906-1.042,2.36-1.578,3.726-1.374c1.365,0.204,2.81,0.96,3.372,2.221c1.756-0.784,3.909-0.604,5.51,0.462
				c1.601,1.066,2.523,3.026,2.476,4.949c1.416,0.383,2.466,1.829,2.39,3.294c-0.076,1.465-1.306,2.941-2.754,3.175
				c-1.371,7.504-3.93,14.949-7.419,21.733c-1.568,3.049-3.49,6.143-6.531,7.726C202.773,224.531,197.613,223.551,194.798,221.139z"
				/>
			<path style="fill:#263238;" d="M194.798,221.139c-0.945,0.126-2.442-0.346-3.09-1.046c-0.648-0.699-0.931-1.72-0.733-2.654
				c-0.936-0.17-1.766-0.843-2.126-1.724c-0.359-0.881-0.056-2.114,0.495-2.89c-1.355-0.342-2.54-1.309-3.146-2.569
				c-0.606-1.26-0.718-2.89-0.14-4.163c-1.49-0.38-2.738-1.593-3.161-3.071c-0.423-1.479-0.167-3.399,0.898-4.509
				c-1.301-1.693-1.584-4.111-0.709-6.059c0.875-1.947,3.073-3.359,5.202-3.511c-0.328-2.051,0.472-4.247,2.042-5.608
				c1.57-1.36,3.769-1.742,5.752-1.125c0.68-1.734,2.33-3.05,4.172-3.329c1.842-0.278,3.876,0.293,5.038,1.749
				c0.906-1.042,2.36-1.578,3.726-1.374c1.365,0.204,2.81,0.96,3.372,2.221c1.756-0.784,3.909-0.604,5.51,0.462
				c1.601,1.066,2.523,3.026,2.476,4.949c1.416,0.383,2.466,1.829,2.39,3.294c-0.076,1.465-1.306,2.941-2.754,3.175
				c-1.371,7.504-3.93,14.949-7.419,21.733c-1.568,3.049-3.49,6.143-6.531,7.726C202.773,224.531,197.613,223.551,194.798,221.139z"
				/>
			<polygon style="fill:#F28F8F;" points="221.14,203.277 224.416,208.971 220.828,210.297 			"/>
			<polygon style="fill:#803837;" points="221.14,203.277 224.416,208.971 220.828,210.297 			"/>
			<path style="fill:#FFA8A7;" d="M220.011,193.36c2.171,7.85,2.502,16.206,0.94,24.201c-0.265,1.362-0.612,2.768-1.505,3.83
				c-1.009,1.2-2.599,1.79-4.161,1.915c-1.563,0.125-3.126-0.163-4.668-0.45v7.41c-5.624,1.326-11.411,1.851-15.82-1.543v-7.583
				c3.161,0.928,6.601,1.314,9.82,0.614c3.886-2.096,4.665-9.194,4.119-11.066c-0.574,0.944-1.962,1.313-3.038,1.068
				c-1.077-0.245-1.969-1.047-2.522-2.003c-0.553-0.956-0.801-2.059-0.941-3.154c-0.171-1.335-0.165-2.784,0.576-3.907
				c0.911-1.38,2.802-1.908,4.4-1.484c1.598,0.425,2.892,1.657,3.704,3.097c0.257,0.455,0.471,0.93,0.652,1.418
				c0.329,0.888,1.618,0.725,1.705-0.217c0.195-2.117-0.18-4.29-1.115-6.2c1.25,0.018,2.426-0.945,3.175-1.945
				c0.749-1.001,0.984-2.366,0.613-3.56C217.825,194.014,220.011,193.36,220.011,193.36z"/>
		</g>
		<path style="fill:#FFA8A7;" d="M200.034,147.542l2.898-7.488l1.307-5.883c0.167-0.753-0.262-1.51-0.993-1.755l0,0
			c-0.783-0.261-1.631,0.158-1.899,0.939l-1.097,3.194v-9.009l-3.757,6.726c-0.566,1.013-0.817,2.172-0.722,3.328l-0.764,11.862
			L200.034,147.542z"/>
		<path style="fill:#263238;" d="M218.607,232.198c8.899-2.945,24.743-7.728,24.743-7.728c7.112,7.172,6.511,18.747,6.511,18.747
			l-21.592,8.99C207.668,258.734,204.665,236.811,218.607,232.198z"/>
		<path style="opacity:0.1;fill:#FFFFFF;" d="M218.607,232.198c8.899-2.945,24.743-7.728,24.743-7.728
			c7.112,7.172,6.511,18.747,6.511,18.747l-21.592,8.99C207.668,258.734,204.665,236.811,218.607,232.198z"/>
	</g>
</g>
</svg>
